HIERARCHY
ROOT Hips
{
	OFFSET 0.00000 0.00000 0.00000
	CHANNELS 6 Xposition Yposition Zposition Zrotation Yrotation Xrotation 
	JOINT LHipJoint
	{
		OFFSET 0 0 0
		CHANNELS 3 Zrotation Yrotation Xrotation
		JOINT LeftUpLeg
		{
			OFFSET 1.41496 -1.84582 0.78394
			CHANNELS 3 Zrotation Yrotation Xrotation
			JOINT LeftLeg
			{
				OFFSET 2.58040 -7.08960 0.00000
				CHANNELS 3 Zrotation Yrotation Xrotation
				JOINT LeftFoot
				{
					OFFSET 2.64719 -7.27309 0.00000
					CHANNELS 3 Zrotation Yrotation Xrotation
					JOINT LeftToeBase
					{
						OFFSET 0.20718 -0.56921 2.20259
						CHANNELS 3 Zrotation Yrotation Xrotation
						End Site
						{
							OFFSET 0.00000 -0.00000 1.14243
						}
					}
				}
			}
		}
	}
	JOINT RHipJoint
	{
		OFFSET 0 0 0
		CHANNELS 3 Zrotation Yrotation Xrotation
		JOINT RightUpLeg
		{
			OFFSET -1.40551 -1.84582 0.78394
			CHANNELS 3 Zrotation Yrotation Xrotation
			JOINT RightLeg
			{
				OFFSET -2.56572 -7.04926 0.00000
				CHANNELS 3 Zrotation Yrotation Xrotation
				JOINT RightFoot
				{
					OFFSET -2.57974 -7.08778 0.00000
					CHANNELS 3 Zrotation Yrotation Xrotation
					JOINT RightToeBase
					{
						OFFSET -0.26704 -0.73369 2.20815
						CHANNELS 3 Zrotation Yrotation Xrotation
						End Site
						{
							OFFSET -0.00000 -0.00000 1.16246
						}
					}
				}
			}
		}
	}
	JOINT LowerBack
	{
		OFFSET 0 0 0
		CHANNELS 3 Zrotation Yrotation Xrotation
		JOINT Spine
		{
			OFFSET -0.04690 2.05196 -0.07017
			CHANNELS 3 Zrotation Yrotation Xrotation
			JOINT Spine1
			{
				OFFSET 0.04085 2.05260 0.00800
				CHANNELS 3 Zrotation Yrotation Xrotation
				JOINT Neck
				{
					OFFSET 0 0 0
					CHANNELS 3 Zrotation Yrotation Xrotation
					JOINT Neck1
					{
						OFFSET -0.03582 1.80995 0.19301
						CHANNELS 3 Zrotation Yrotation Xrotation
						JOINT Head
						{
							OFFSET 0.00952 1.80195 -0.36389
							CHANNELS 3 Zrotation Yrotation Xrotation
							End Site
							{
								OFFSET 0.00392 1.85062 -0.14494
							}
						}
					}
				}
				JOINT LeftShoulder
				{
					OFFSET 0 0 0
					CHANNELS 3 Zrotation Yrotation Xrotation
					JOINT LeftArm
					{
						OFFSET 3.55224 1.39726 -0.13667
						CHANNELS 3 Zrotation Yrotation Xrotation
						JOINT LeftForeArm
						{
							OFFSET 5.14507 -0.00000 -0.00000
							CHANNELS 3 Zrotation Yrotation Xrotation
							JOINT LeftHand
							{
								OFFSET 3.50646 -0.00000 0.00000
								CHANNELS 3 Zrotation Yrotation Xrotation
								JOINT LeftFingerBase
								{
									OFFSET 0 0 0
									CHANNELS 3 Zrotation Yrotation Xrotation
									JOINT LeftHandIndex1
									{
										OFFSET 0.62997 -0.00000 0.00000
										CHANNELS 3 Zrotation Yrotation Xrotation
										End Site
										{
											OFFSET 0.50790 -0.00000 0.00000
										}
									}
								}
								JOINT LThumb
								{
									OFFSET 0 0 0
									CHANNELS 3 Zrotation Yrotation Xrotation
									End Site
									{
										OFFSET 0.51565 -0.00000 0.51565
									}
								}
							}
						}
					}
				}
				JOINT RightShoulder
				{
					OFFSET 0 0 0
					CHANNELS 3 Zrotation Yrotation Xrotation
					JOINT RightArm
					{
						OFFSET -3.06467 1.61290 -0.28813
						CHANNELS 3 Zrotation Yrotation Xrotation
						JOINT RightForeArm
						{
							OFFSET -5.23200 -0.00000 -0.00000
							CHANNELS 3 Zrotation Yrotation Xrotation
							JOINT RightHand
							{
								OFFSET -3.65641 -0.00000 0.00000
								CHANNELS 3 Zrotation Yrotation Xrotation
								JOINT RightFingerBase
								{
									OFFSET 0 0 0
									CHANNELS 3 Zrotation Yrotation Xrotation
									JOINT RightHandIndex1
									{
										OFFSET -0.65681 -0.00000 0.00000
										CHANNELS 3 Zrotation Yrotation Xrotation
										End Site
										{
											OFFSET -0.52953 -0.00000 0.00000
										}
									}
								}
								JOINT RThumb
								{
									OFFSET 0 0 0
									CHANNELS 3 Zrotation Yrotation Xrotation
									End Site
									{
										OFFSET -0.53762 -0.00000 0.53762
									}
								}
							}
						}
					}
				}
			}
		}
	}
}
MOTION
Frames: 15
Frame Time: .0083333
-1.1325 8.2434 -20.1428 -108.2460 -32.2324 135.4660 0.0000 0.0000 0.0000 2.6828 19.5554 -72.4981 35.0286 13.3515 139.3010 3.3922 -15.8868 42.8956 0.9739 6.2824 17.6060 0.0000 0.0000 0.0000 11.7779 -7.3932 -96.1098 -14.2152 -19.1780 72.8607 -1.2404 -6.1827 19.9166 -2.1238 9.1194 -26.1695 4.4797 -0.0972 51.8067 7.7571 0.1056 8.7120 6.7501 -1.7109 -11.1532 -7.3724 -10.0947 -8.4886 32.1116 -17.0100 0.5873 9.8825 -8.7323 5.4575 0.0000 0.0000 0.0000 -61.3220 0.9199 19.1892 68.2252 -58.1304 -41.2608 -0.0000 -0.0000 48.4992 51.2682 3.4444 4.2838 -7.1250 0.0000 -0.0000 20.2461 34.8414 -5.3312 0.0000 0.0000 0.0000 33.2580 25.7541 -14.8862 -65.0918 57.5208 -38.6084 0.0000 -0.0000 -13.6750 -30.5301 -12.5217 7.2865 7.1250 -0.0000 -0.0000 -3.0256 -44.4167 -0.0436
-1.1162 8.4573 -20.4562 -109.0360 -34.2206 136.0950 0.0000 0.0000 0.0000 3.4468 20.3385 -71.7672 34.9730 13.4142 139.0608 3.2954 -16.9885 43.2414 0.7773 5.6292 15.7122 0.0000 0.0000 0.0000 12.4858 -7.4064 -98.3176 -14.8344 -19.3478 74.7374 -1.2114 -5.8932 19.6885 -2.2643 9.3962 -27.0429 3.8048 0.0223 51.8786 7.4720 -0.1117 8.8405 6.8318 -1.7629 -11.0130 -7.5378 -10.1741 -8.1987 32.4551 -16.9544 -0.0363 10.0570 -8.7858 5.2686 -0.0000 -0.0000 0.0000 -60.2441 0.3572 18.6775 64.5050 -57.3955 -38.1137 -0.0000 -0.0000 47.2206 52.6265 2.5769 3.3686 -7.1250 0.0000 -0.0000 21.0529 33.5939 -6.2532 -0.0000 -0.0000 0.0000 34.6440 25.1126 -13.7425 -66.4477 57.7966 -39.7540 0.0000 -0.0000 -12.7453 -30.4742 -12.1915 7.0836 7.1250 -0.0000 -0.0000 -2.9938 -44.0323 -0.0716
-1.1024 8.6585 -20.7706 -109.9680 -36.1734 136.7650 0.0000 0.0000 0.0000 4.1394 20.9654 -70.8414 34.8832 13.5141 138.6753 3.2223 -18.2184 43.8164 0.6972 5.3375 14.8737 0.0000 0.0000 0.0000 13.1312 -7.3468 -100.4112 -15.4971 -19.5068 76.7295 -1.1897 -5.4630 19.5312 -2.4258 9.7018 -28.0164 3.1370 0.1475 51.9005 7.1952 -0.3197 8.9658 6.9144 -1.8129 -10.8672 -7.7333 -10.2794 -7.8727 32.7147 -16.9235 -0.5952 10.2066 -8.8416 5.0900 -0.0000 -0.0000 0.0000 -59.1937 -0.4267 18.3221 60.3093 -56.3918 -34.5985 -0.0000 -0.0000 46.0455 53.9120 1.8816 2.5793 -7.1250 0.0000 -0.0000 21.8188 32.5526 -7.1052 -0.0000 -0.0000 0.0000 35.9132 24.3623 -12.6369 -67.6811 58.0315 -40.7990 0.0000 -0.0000 -11.7962 -30.3848 -11.8014 6.8382 7.1250 -0.0000 -0.0000 -2.9336 -43.5756 -0.1032
-1.0924 8.8470 -21.0833 -111.0670 -38.0763 137.5290 0.0000 0.0000 0.0000 4.7140 21.4130 -69.7419 34.7562 13.6532 138.1342 3.1797 -19.4484 44.5562 0.7063 5.3714 14.9709 0.0000 0.0000 0.0000 13.7245 -7.2039 -102.3968 -16.1867 -19.6477 78.7875 -1.1818 -4.9364 19.5053 -2.5601 9.9463 -28.8030 2.4736 0.2775 51.8339 6.9212 -0.5178 9.0834 6.9913 -1.8580 -10.7164 -7.9616 -10.4053 -7.5361 32.9054 -16.9231 -1.0666 10.3343 -8.8981 4.9366 0.0000 0.0000 0.0000 -58.1839 -1.4315 18.1523 55.7526 -55.0676 -30.8321 -0.0000 -0.0000 44.8870 55.0563 1.3221 1.8912 -7.1250 0.0000 -0.0000 22.4915 31.6770 -7.8732 0.0000 0.0000 0.0000 37.0617 23.5217 -11.5927 -68.7685 58.2263 -41.7225 0.0000 -0.0000 -10.8696 -30.2232 -11.3770 6.5555 7.1250 -0.0000 -0.0000 -2.8087 -43.0713 -0.1338
-1.0867 9.0237 -21.3922 -112.3010 -39.9024 138.3910 0.0000 0.0000 0.0000 5.1850 21.6774 -68.4971 34.5906 13.8306 137.4371 3.1646 -20.5980 45.3761 0.7153 5.4047 15.0666 0.0000 0.0000 0.0000 14.3266 -6.9852 -104.2704 -16.8886 -19.7663 80.8687 -1.1926 -4.2320 19.6736 -2.6741 10.1479 -29.4569 1.8520 0.3947 51.6626 6.6560 -0.7049 9.1923 7.0513 -1.8984 -10.5594 -8.2287 -10.5500 -7.2380 33.0393 -16.9629 -1.4261 10.4405 -8.9541 4.8288 -0.0000 -0.0000 0.0000 -57.2438 -2.6355 18.1889 51.0254 -53.4008 -26.9952 -0.0000 -0.0000 43.6530 55.9937 0.9190 1.3618 -7.1250 0.0000 -0.0000 23.0432 31.0199 -8.4955 -0.0000 -0.0000 0.0000 38.0851 22.6195 -10.6364 -69.6987 58.3840 -42.5139 0.0000 -0.0000 -10.0023 -29.9832 -10.9441 6.2511 7.1250 -0.0000 -0.0000 -2.6130 -42.5496 -0.1581
-1.0858 9.1898 -21.6946 -113.6640 -41.6962 139.3550 0.0000 0.0000 0.0000 5.4669 21.6484 -67.1246 34.3834 14.0462 136.5772 3.1685 -21.5569 46.1419 0.7104 5.3866 15.0145 0.0000 0.0000 0.0000 14.9194 -6.7448 -106.0344 -17.5940 -19.8606 82.9497 -1.2184 -3.4278 20.0125 -2.7338 10.2510 -29.7935 1.2794 0.4754 51.3942 6.3953 -0.9000 9.2834 7.0955 -1.9407 -10.4053 -8.5190 -10.7096 -6.9751 33.1255 -17.0373 -1.6954 10.5262 -9.0103 4.7580 -0.0000 -0.0000 0.0000 -56.3973 -4.0086 18.4585 46.3285 -51.4029 -23.2724 -0.0000 -0.0000 42.2745 56.6816 0.5904 0.8981 -7.1250 0.0000 -0.0000 23.4230 30.4664 -9.0009 -0.0000 -0.0000 0.0000 38.9830 21.6709 -9.7928 -70.4547 58.5062 -43.1582 0.0000 -0.0000 -9.2220 -29.6903 -10.5258 5.9463 7.1250 -0.0000 -0.0000 -2.3697 -42.0407 -0.1731
-1.0898 9.3471 -21.9900 -115.1160 -43.4308 140.3900 0.0000 0.0000 0.0000 5.6066 21.3711 -65.6387 34.1348 14.2965 135.5616 3.1944 -22.3398 46.8621 0.6970 5.3369 14.8719 0.0000 0.0000 0.0000 15.5513 -6.4829 -107.6600 -18.2952 -19.9302 85.0101 -1.2483 -2.6076 20.4207 -2.7354 10.2539 -29.8030 0.7934 0.5064 51.0546 6.1410 -1.0995 9.3523 7.1083 -1.9844 -10.2627 -8.8262 -10.8778 -6.7550 33.1788 -17.1401 -1.8864 10.5958 -9.0659 4.7220 0.0000 0.0000 0.0000 -55.6728 -5.4853 18.9572 41.8664 -49.1376 -19.8394 -0.0000 -0.0000 40.7525 57.0895 0.3769 0.5824 -7.1250 0.0000 -0.0000 23.6352 30.0988 -9.3259 0.0000 0.0000 0.0000 39.7687 20.6987 -9.0706 -71.0307 58.5957 -43.6496 0.0000 -0.0000 -8.5674 -29.3926 -10.1485 5.6683 7.1250 -0.0000 -0.0000 -2.1216 -41.5801 -0.1791
-1.0988 9.4969 -22.2790 -116.6560 -45.1204 141.4870 0.0000 0.0000 0.0000 5.5880 20.8514 -64.0458 33.8442 14.5776 134.3963 3.2482 -22.9933 47.5863 0.7000 5.3481 14.9041 0.0000 0.0000 0.0000 16.2094 -6.2154 -109.1315 -18.9872 -19.9754 87.0377 -1.2694 -1.8543 20.7703 -2.7052 10.2018 -29.6326 0.3769 0.4890 50.6475 5.8907 -1.3107 9.4013 7.0979 -2.0324 -10.1290 -9.1336 -11.0436 -6.5504 33.2039 -17.2526 -2.0246 10.6528 -9.1179 4.7032 0.0000 -0.0000 0.0000 -55.1031 -6.9900 19.6481 37.7766 -46.6960 -16.8028 -0.0000 -0.0000 39.1550 57.1640 0.3617 0.5605 -7.1250 0.0000 -0.0000 23.6835 30.0711 -9.3657 0.0000 -0.0000 0.0000 40.4560 19.7223 -8.4581 -71.4268 58.6556 -43.9877 0.0000 -0.0000 -8.0626 -29.1518 -9.8530 5.4522 7.1250 -0.0000 -0.0000 -1.9216 -41.2202 -0.1792
-1.1122 9.6404 -22.5626 -118.2660 -46.7659 142.6060 0.0000 0.0000 0.0000 5.4444 20.1269 -62.3364 33.5147 14.8827 133.1003 3.3452 -23.5805 48.4109 0.7448 5.5127 15.3770 0.0000 0.0000 0.0000 16.9003 -5.9596 -110.4107 -19.6629 -19.9973 89.0145 -1.2697 -1.2283 20.9373 -2.6788 10.1561 -29.4836 0.0318 0.4171 50.2197 5.6443 -1.5428 9.4286 7.0690 -2.0901 -10.0120 -9.4315 -11.1993 -6.3604 33.1946 -17.3626 -2.1181 10.6951 -9.1617 4.6944 0.0000 -0.0000 0.0000 -54.7236 -8.4505 20.4543 34.1309 -44.1814 -14.2042 -0.0000 -0.0000 37.5765 56.8937 0.5535 0.8488 -7.1250 0.0000 -0.0000 23.5647 30.4004 -9.1058 0.0000 -0.0000 0.0000 41.0569 18.7768 -7.9366 -71.6412 58.6874 -44.1708 0.0000 -0.0000 -7.7248 -29.0090 -9.6587 5.3153 7.1250 -0.0000 -0.0000 -1.8045 -40.9857 -0.1787
-1.1292 9.7778 -22.8423 -119.9130 -48.3043 143.7540 0.0000 0.0000 0.0000 5.2836 19.3466 -60.5839 33.1557 15.1994 131.7169 3.5143 -24.1610 49.4740 0.8560 5.9004 16.4956 0.0000 0.0000 0.0000 17.6651 -5.6472 -111.4880 -20.3086 -19.9977 90.9024 -1.2440 -0.8033 20.8421 -2.6723 10.1447 -29.4466 -0.2282 0.3059 49.7464 5.4094 -1.7708 9.4327 7.0115 -2.1462 -9.9131 -9.6964 -11.3429 -6.1759 33.1311 -17.4640 -2.1734 10.7132 -9.1960 4.6853 0.0000 -0.0000 0.0000 -54.5596 -9.8097 21.2903 30.9358 -41.6821 -12.0271 -0.0000 -0.0000 36.1343 56.2929 0.9149 1.3712 -7.1250 0.0000 -0.0000 23.2664 31.0111 -8.5969 0.0000 -0.0000 0.0000 41.5826 17.8750 -7.4857 -71.6848 58.6938 -44.2082 0.0000 -0.0000 -7.5647 -28.9893 -9.5728 5.2644 7.1250 -0.0000 -0.0000 -1.7914 -40.8863 -0.1818
-1.1500 9.9092 -23.1189 -121.6330 -49.7576 144.9590 0.0000 0.0000 0.0000 5.0752 18.5261 -58.7929 32.7726 15.5204 130.2707 3.7728 -24.7136 50.7943 1.0436 6.4967 18.2326 0.0000 0.0000 0.0000 18.4527 -5.2900 -112.3491 -20.9105 -19.9801 92.6629 -1.1974 -0.5820 20.5084 -2.7009 10.1943 -29.6083 -0.4380 0.1441 49.2161 5.1791 -2.0290 9.4274 6.9478 -2.2164 -9.8110 -9.9636 -11.4633 -6.0180 33.0126 -17.5406 -2.1804 10.7143 -9.2100 4.6824 0.0000 0.0000 0.0000 -54.6494 -11.0228 22.0002 28.1561 -39.2596 -10.2223 -0.0000 -0.0000 34.9334 55.3198 1.5243 2.2017 -7.1250 0.0000 -0.0000 22.7725 32.0063 -7.7898 0.0000 0.0000 0.0000 42.0137 17.0871 -7.0650 -71.5619 58.6757 -44.1032 0.0000 -0.0000 -7.5760 -29.0977 -9.6081 5.3071 7.1250 -0.0000 -0.0000 -1.8861 -40.9369 -0.1891
-1.1746 10.0348 -23.3934 -123.4770 -51.1284 146.2650 0.0000 0.0000 0.0000 4.8095 17.7125 -56.9712 32.3698 15.8404 128.7805 4.1296 -25.2095 52.3501 1.2966 7.2144 20.3521 0.0000 0.0000 0.0000 19.2125 -4.8803 -112.9692 -21.4530 -19.9493 94.2518 -1.1382 -0.5585 19.9958 -2.6898 10.1751 -29.5456 -0.7480 -0.0152 47.7047 4.9087 -2.3329 10.3997 6.9898 -2.2767 -9.7595 -10.2366 -11.5618 -5.8931 32.8380 -17.5936 -2.1371 10.6982 -9.2041 4.6877 0.0000 0.0000 0.0000 -54.9984 -12.0916 22.4755 25.7286 -36.9394 -8.7240 -0.0000 -0.0000 34.0413 53.9856 2.2033 3.0274 -7.1250 0.0000 -0.0000 21.9956 33.0613 -6.8782 0.0000 0.0000 0.0000 42.3601 16.4155 -6.6581 -71.3099 58.6381 -43.8879 0.0000 -0.0000 -7.7302 -29.2966 -9.7301 5.4171 7.1250 -0.0000 -0.0000 -2.0572 -41.0948 -0.1982
-1.2032 10.1546 -23.6663 -125.4700 -52.4074 147.7100 0.0000 0.0000 0.0000 4.4924 16.9391 -55.1356 31.9502 16.1558 127.2581 4.6004 -25.5690 54.1017 1.6023 7.9832 22.6632 0.0000 0.0000 0.0000 19.9191 -4.4089 -113.3294 -21.9233 -19.9111 95.6312 -1.0599 -0.6253 19.2658 -2.6363 10.0815 -29.2412 -0.9380 -0.2396 47.0543 4.6662 -2.6445 10.3488 6.9339 -2.3737 -9.6244 -10.5244 -11.6445 -5.8228 32.5938 -17.6304 -2.0299 10.6586 -9.1786 4.7099 -0.0000 -0.0000 0.0000 -55.6110 -13.0321 22.6240 23.5949 -34.7330 -7.4745 -0.0000 -0.0000 33.5175 52.2483 2.9644 3.8209 -7.1250 0.0000 -0.0000 20.8827 34.1697 -5.8837 -0.0000 -0.0000 0.0000 42.6099 15.8642 -6.2524 -70.9588 58.5847 -43.5882 0.0000 -0.0000 -7.9830 -29.5431 -9.8944 5.5624 7.1250 -0.0000 -0.0000 -2.2693 -41.3064 -0.2069
-1.2366 10.2688 -23.9369 -127.6930 -53.6167 149.3720 0.0000 0.0000 0.0000 4.0399 16.1750 -53.2913 31.5092 16.4687 125.6880 5.1778 -25.7210 55.9540 1.9240 8.7059 24.8797 0.0000 0.0000 0.0000 20.5082 -3.9026 -113.4366 -22.3189 -19.8706 96.7939 -0.9523 -0.5576 18.2680 -2.4906 9.8208 -28.3983 -1.1553 -0.4781 46.3182 4.4022 -2.9798 10.2801 6.8752 -2.4791 -9.4815 -10.8092 -11.7143 -5.7712 32.2898 -17.6525 -1.8813 10.5985 -9.1403 4.7357 0.0000 -0.0000 0.0000 -56.4559 -13.8782 22.4288 21.7000 -32.6363 -6.4233 -0.0000 -0.0000 33.3244 50.0648 3.7171 4.4281 -7.1250 0.0000 -0.0000 19.3431 35.1729 -4.9031 0.0000 -0.0000 0.0000 42.7897 15.3869 -5.8424 -70.5621 58.5231 -43.2498 0.0000 -0.0000 -8.2717 -29.7873 -10.0634 5.7118 7.1250 -0.0000 -0.0000 -2.4801 -41.5238 -0.2128
-1.2751 10.3778 -24.2045 -130.0960 -54.7086 151.2100 0.0000 0.0000 0.0000 3.5220 15.4625 -51.4375 31.0427 16.7802 124.0576 5.8528 -25.6482 57.8661 2.2233 9.3165 26.7904 0.0000 0.0000 0.0000 21.0128 -3.3695 -113.2599 -22.6413 -19.8319 97.7434 -0.8152 -0.2160 16.9951 -2.2388 9.3467 -26.8859 -1.3567 -0.7308 45.5076 4.1303 -3.3205 10.1951 6.7983 -2.5872 -9.3327 -11.1133 -11.7749 -5.7456 31.9324 -17.6637 -1.6873 10.5231 -9.0905 4.7717 -0.0000 -0.0000 0.0000 -57.5294 -14.6481 21.8564 20.0087 -30.6528 -5.5358 -0.0000 -0.0000 33.4337 47.3056 4.5198 4.8821 -7.1250 0.0000 -0.0000 17.2668 36.1399 -3.9067 -0.0000 -0.0000 0.0000 42.8899 14.9690 -5.4228 -70.1534 58.4581 -42.9013 0.0000 -0.0000 -8.5333 -29.9852 -10.1830 5.8246 7.1250 -0.0000 -0.0000 -2.6524 -41.6810 -0.2173
